<svg width="15" height="29" viewBox="0 0 15 29" fill="none" xmlns="http://www.w3.org/2000/svg">
<path d="M7.20045 26.338C5.38045 26.338 3.86378 25.9133 2.65045 25.064C1.45445 24.2147 0.596449 22.958 0.0764493 21.294L3.58645 20.124C3.91578 21.164 4.40112 21.9353 5.04245 22.438C5.68378 22.9233 6.48112 23.166 7.43445 23.166C8.42245 23.166 9.15912 22.984 9.64445 22.62C10.1298 22.2387 10.3725 21.762 10.3725 21.19C10.3725 20.6527 10.1991 20.2193 9.85245 19.89C9.50578 19.5433 9.03778 19.2573 8.44845 19.032C7.85912 18.8067 7.21778 18.5987 6.52445 18.408C5.83112 18.2 5.13778 17.9747 4.44445 17.732C3.76845 17.472 3.13578 17.1427 2.54645 16.744C1.95712 16.3453 1.48912 15.8427 1.14245 15.236C0.795783 14.612 0.622449 13.832 0.622449 12.896C0.622449 11.908 0.873783 11.024 1.37645 10.244C1.89645 9.464 2.64178 8.84867 3.61245 8.398C4.58312 7.94733 5.76178 7.722 7.14845 7.722C8.81245 7.722 10.2164 8.12933 11.3604 8.944C12.5218 9.74133 13.3364 10.9027 13.8045 12.428L10.4244 13.598C10.1124 12.662 9.65312 11.9773 9.04645 11.544C8.45712 11.1107 7.72045 10.894 6.83645 10.894C5.88312 10.894 5.20712 11.076 4.80845 11.44C4.40978 11.804 4.21045 12.22 4.21045 12.688C4.21045 13.1733 4.38378 13.5633 4.73045 13.858C5.09445 14.1527 5.56245 14.4127 6.13445 14.638C6.72378 14.846 7.36512 15.0453 8.05845 15.236C8.76912 15.4267 9.47112 15.6607 10.1644 15.938C10.8578 16.198 11.4904 16.5447 12.0625 16.978C12.6518 17.394 13.1198 17.9313 13.4664 18.59C13.8305 19.2487 14.0125 20.0633 14.0125 21.034C14.0125 22.074 13.7438 22.9927 13.2065 23.79C12.6691 24.5873 11.8891 25.2113 10.8665 25.662C9.86112 26.1127 8.63912 26.338 7.20045 26.338ZM5.74445 28.86V24.518H8.60445V28.86H5.74445ZM5.74445 9.88V5.2H8.60445V9.88H5.74445Z" fill="white"/>
</svg>
