<svg width="28" height="20" viewBox="0 0 28 20" fill="none" xmlns="http://www.w3.org/2000/svg">
<path d="M5.63129 14.3389C4.61396 14.3389 3.75996 14.1055 3.06929 13.6389C2.37862 13.1629 1.88396 12.4442 1.58529 11.4829L3.69929 10.7689C3.88596 11.3382 4.15196 11.7535 4.49729 12.0149C4.85196 12.2669 5.27196 12.3929 5.75729 12.3929C6.27063 12.3929 6.64396 12.3089 6.87729 12.1409C7.11062 11.9635 7.22729 11.7442 7.22729 11.4829C7.22729 11.2215 7.12929 11.0115 6.93329 10.8529C6.74662 10.6849 6.48996 10.5495 6.16329 10.4469C5.84596 10.3349 5.49596 10.2275 5.11329 10.1249C4.73996 10.0222 4.36196 9.90552 3.97929 9.77485C3.60596 9.64419 3.25596 9.47152 2.92929 9.25685C2.61196 9.04219 2.35529 8.76685 2.15929 8.43085C1.97262 8.09485 1.87929 7.67485 1.87929 7.17085C1.87929 6.60152 2.02396 6.10219 2.31329 5.67285C2.61196 5.24352 3.03662 4.90752 3.58729 4.66485C4.14729 4.41285 4.81462 4.28685 5.58929 4.28685C6.50396 4.28685 7.28796 4.51085 7.94129 4.95885C8.60396 5.39752 9.07063 6.04619 9.34129 6.90485L7.31129 7.61885C7.14329 7.12419 6.89596 6.76952 6.56929 6.55485C6.24262 6.33085 5.85062 6.21885 5.39329 6.21885C4.90796 6.21885 4.56262 6.30285 4.35729 6.47085C4.16129 6.63885 4.06329 6.83019 4.06329 7.04485C4.06329 7.27819 4.16129 7.46485 4.35729 7.60485C4.55329 7.74485 4.80996 7.86619 5.12729 7.96885C5.44462 8.07152 5.79462 8.17419 6.17729 8.27685C6.56929 8.37019 6.95662 8.49152 7.33929 8.64085C7.72196 8.78085 8.07196 8.96752 8.38929 9.20085C8.70663 9.42485 8.96329 9.71419 9.15929 10.0689C9.35529 10.4235 9.45329 10.8669 9.45329 11.3989C9.45329 11.9775 9.29929 12.4909 8.99129 12.9389C8.68329 13.3775 8.24462 13.7229 7.67529 13.9749C7.10596 14.2175 6.42462 14.3389 5.63129 14.3389ZM4.76329 15.6829V13.2469H6.42929V15.6829H4.76329ZM4.76329 5.68685V2.94285H6.42929V5.68685H4.76329Z" fill="white"/>
<path d="M14.1393 14.3389C13.122 14.3389 12.268 14.1055 11.5773 13.6389C10.8866 13.1629 10.392 12.4442 10.0933 11.4829L12.2073 10.7689C12.394 11.3382 12.66 11.7535 13.0053 12.0149C13.36 12.2669 13.78 12.3929 14.2653 12.3929C14.7786 12.3929 15.152 12.3089 15.3853 12.1409C15.6186 11.9635 15.7353 11.7442 15.7353 11.4829C15.7353 11.2215 15.6373 11.0115 15.4413 10.8529C15.2546 10.6849 14.998 10.5495 14.6713 10.4469C14.354 10.3349 14.004 10.2275 13.6213 10.1249C13.248 10.0222 12.87 9.90552 12.4873 9.77485C12.114 9.64419 11.764 9.47152 11.4373 9.25685C11.12 9.04219 10.8633 8.76685 10.6673 8.43085C10.4806 8.09485 10.3873 7.67485 10.3873 7.17085C10.3873 6.60152 10.532 6.10219 10.8213 5.67285C11.12 5.24352 11.5446 4.90752 12.0953 4.66485C12.6553 4.41285 13.3226 4.28685 14.0973 4.28685C15.012 4.28685 15.796 4.51085 16.4493 4.95885C17.112 5.39752 17.5786 6.04619 17.8493 6.90485L15.8193 7.61885C15.6513 7.12419 15.404 6.76952 15.0773 6.55485C14.7506 6.33085 14.3586 6.21885 13.9013 6.21885C13.416 6.21885 13.0706 6.30285 12.8653 6.47085C12.6693 6.63885 12.5713 6.83019 12.5713 7.04485C12.5713 7.27819 12.6693 7.46485 12.8653 7.60485C13.0613 7.74485 13.318 7.86619 13.6353 7.96885C13.9526 8.07152 14.3026 8.17419 14.6853 8.27685C15.0773 8.37019 15.4646 8.49152 15.8473 8.64085C16.23 8.78085 16.58 8.96752 16.8973 9.20085C17.2146 9.42485 17.4713 9.71419 17.6673 10.0689C17.8633 10.4235 17.9613 10.8669 17.9613 11.3989C17.9613 11.9775 17.8073 12.4909 17.4993 12.9389C17.1913 13.3775 16.7526 13.7229 16.1833 13.9749C15.614 14.2175 14.9326 14.3389 14.1393 14.3389ZM13.2713 15.6829V13.2469H14.9373V15.6829H13.2713ZM13.2713 5.68685V2.94285H14.9373V5.68685H13.2713Z" fill="white"/>
<path d="M22.6473 14.3389C21.6299 14.3389 20.7759 14.1055 20.0853 13.6389C19.3946 13.1629 18.8999 12.4442 18.6013 11.4829L20.7153 10.7689C20.9019 11.3382 21.1679 11.7535 21.5133 12.0149C21.8679 12.2669 22.2879 12.3929 22.7733 12.3929C23.2866 12.3929 23.6599 12.3089 23.8933 12.1409C24.1266 11.9635 24.2433 11.7442 24.2433 11.4829C24.2433 11.2215 24.1453 11.0115 23.9493 10.8529C23.7626 10.6849 23.5059 10.5495 23.1793 10.4469C22.8619 10.3349 22.5119 10.2275 22.1293 10.1249C21.7559 10.0222 21.3779 9.90552 20.9953 9.77485C20.6219 9.64419 20.2719 9.47152 19.9453 9.25685C19.6279 9.04219 19.3713 8.76685 19.1753 8.43085C18.9886 8.09485 18.8953 7.67485 18.8953 7.17085C18.8953 6.60152 19.0399 6.10219 19.3293 5.67285C19.6279 5.24352 20.0526 4.90752 20.6033 4.66485C21.1633 4.41285 21.8306 4.28685 22.6053 4.28685C23.5199 4.28685 24.3039 4.51085 24.9573 4.95885C25.6199 5.39752 26.0866 6.04619 26.3573 6.90485L24.3273 7.61885C24.1593 7.12419 23.9119 6.76952 23.5853 6.55485C23.2586 6.33085 22.8666 6.21885 22.4093 6.21885C21.9239 6.21885 21.5786 6.30285 21.3733 6.47085C21.1773 6.63885 21.0793 6.83019 21.0793 7.04485C21.0793 7.27819 21.1773 7.46485 21.3733 7.60485C21.5693 7.74485 21.8259 7.86619 22.1433 7.96885C22.4606 8.07152 22.8106 8.17419 23.1933 8.27685C23.5853 8.37019 23.9726 8.49152 24.3553 8.64085C24.7379 8.78085 25.0879 8.96752 25.4053 9.20085C25.7226 9.42485 25.9793 9.71419 26.1753 10.0689C26.3713 10.4235 26.4693 10.8669 26.4693 11.3989C26.4693 11.9775 26.3153 12.4909 26.0073 12.9389C25.6993 13.3775 25.2606 13.7229 24.6913 13.9749C24.1219 14.2175 23.4406 14.3389 22.6473 14.3389ZM21.7793 15.6829V13.2469H23.4453V15.6829H21.7793ZM21.7793 5.68685V2.94285H23.4453V5.68685H21.7793Z" fill="white"/>
</svg>
