<svg width="34" height="34" viewBox="0 0 34 34" fill="none" xmlns="http://www.w3.org/2000/svg">
<path d="M8.28748 24.225C9.49165 23.3041 10.8375 22.5781 12.325 22.0469C13.8125 21.5156 15.3708 21.25 17 21.25C18.6291 21.25 20.1875 21.5156 21.675 22.0469C23.1625 22.5781 24.5083 23.3041 25.7125 24.225C26.5389 23.2569 27.1823 22.159 27.6427 20.9312C28.1031 19.7035 28.3333 18.393 28.3333 17C28.3333 13.8597 27.2295 11.1857 25.0219 8.9781C22.8142 6.77047 20.1403 5.66665 17 5.66665C13.8597 5.66665 11.1857 6.77047 8.9781 8.9781C6.77047 11.1857 5.66665 13.8597 5.66665 17C5.66665 18.393 5.89685 19.7035 6.35727 20.9312C6.81769 22.159 7.46109 23.2569 8.28748 24.225ZM17 18.4166C15.6069 18.4166 14.4323 17.9385 13.476 16.9823C12.5198 16.026 12.0416 14.8514 12.0416 13.4583C12.0416 12.0653 12.5198 10.8906 13.476 9.93435C14.4323 8.9781 15.6069 8.49998 17 8.49998C18.393 8.49998 19.5677 8.9781 20.5239 9.93435C21.4802 10.8906 21.9583 12.0653 21.9583 13.4583C21.9583 14.8514 21.4802 16.026 20.5239 16.9823C19.5677 17.9385 18.393 18.4166 17 18.4166ZM17 31.1666C15.0403 31.1666 13.1986 30.7948 11.475 30.051C9.75137 29.3073 8.25206 28.2979 6.97706 27.0229C5.70206 25.7479 4.69269 24.2486 3.94894 22.525C3.20519 20.8014 2.83331 18.9597 2.83331 17C2.83331 15.0403 3.20519 13.1986 3.94894 11.475C4.69269 9.75137 5.70206 8.25206 6.97706 6.97706C8.25206 5.70206 9.75137 4.69269 11.475 3.94894C13.1986 3.20519 15.0403 2.83331 17 2.83331C18.9597 2.83331 20.8014 3.20519 22.525 3.94894C24.2486 4.69269 25.7479 5.70206 27.0229 6.97706C28.2979 8.25206 29.3073 9.75137 30.051 11.475C30.7948 13.1986 31.1666 15.0403 31.1666 17C31.1666 18.9597 30.7948 20.8014 30.051 22.525C29.3073 24.2486 28.2979 25.7479 27.0229 27.0229C25.7479 28.2979 24.2486 29.3073 22.525 30.051C20.8014 30.7948 18.9597 31.1666 17 31.1666Z" fill="#FEF7FF"/>
</svg>
